<?xml version="1.0" encoding="UTF-8"?>
<!-- Generator: Adobe Illustrator 24.0.2, SVG Export Plug-In . SVG Version: 6.00 Build 0)  -->
<svg xmlns="http://www.w3.org/2000/svg" xmlns:xlink="http://www.w3.org/1999/xlink" version="1.1" id="Layer_1" x="0px" y="0px" viewBox="0 0 402.44 117.18" style="enable-background:new 0 0 402.44 117.18;" xml:space="preserve">
<style type="text/css">
	.st0{clip-path:url(#SVGID_2_);fill:#131050;}
	.st1{clip-path:url(#SVGID_4_);fill:#131050;}
	.st2{clip-path:url(#SVGID_4_);fill-rule:evenodd;clip-rule:evenodd;fill:#7150BE;}
	.st3{clip-path:url(#SVGID_4_);fill:#F69300;}
	.st4{fill:#131050;}
</style>
<g>
	<defs>
		<rect id="SVGID_1_" x="1" width="399.44" height="117.18"></rect>
	</defs>
	<clipPath id="SVGID_2_">
		<use xlink:href="#SVGID_1_" style="overflow:visible;"></use>
	</clipPath>
	<path class="st0" d="M99.46,108.12h6.86c0-2.11-1.57-3.28-3.43-3.28C101.13,104.83,99.66,106.01,99.46,108.12 M102.99,114.54   c-3.09,0-5.39-2.16-5.39-5.64c0-3.48,2.21-5.59,5.39-5.59c3.19,0,5.19,2.21,5.19,5.2c0,0.39,0,0.73-0.05,1.08h-8.68   c0.15,2.21,1.67,3.43,3.53,3.43c1.62,0,2.65-0.83,3.04-2.01h1.96C107.4,112.97,105.69,114.54,102.99,114.54"></path>
	<path class="st0" d="M119.51,103.31c2.7,0,4.46,1.37,5,3.68h-1.96c-0.39-1.32-1.47-2.16-3.09-2.16c-1.96,0-3.43,1.42-3.43,4.07   s1.47,4.12,3.43,4.12c1.62,0,2.7-0.78,3.09-2.16h1.96c-0.54,2.16-2.3,3.68-5,3.68c-3.09,0-5.29-2.16-5.29-5.64   C114.22,105.52,116.42,103.31,119.51,103.31"></path>
	<path class="st0" d="M131.17,112.97c1.86,0,3.72-1.27,3.72-4.02c0-2.74-1.81-4.02-3.68-4.02s-3.63,1.27-3.63,4.02   C127.6,111.7,129.26,112.97,131.17,112.97 M131.17,114.54c-3.09,0-5.39-2.16-5.39-5.64c0-3.48,2.4-5.59,5.49-5.59   c3.09,0,5.49,2.16,5.49,5.59C136.71,112.38,134.26,114.54,131.17,114.54z"></path>
	<path class="st0" d="M146.56,108.22c0-2.2-1.23-3.33-3.04-3.33c-1.81,0-3.14,1.13-3.14,3.48v5.98h-1.81v-10.88h1.81v1.57   c0.74-1.13,2.01-1.76,3.48-1.76c2.5,0,4.46,1.57,4.46,4.66v6.42h-1.76V108.22z"></path>
	<path class="st0" d="M158.77,108.22c0-2.2-1.23-3.33-3.04-3.33c-1.81,0-3.14,1.13-3.14,3.48v5.98h-1.81v-10.88h1.81v1.57   c0.74-1.13,2.01-1.76,3.48-1.76c2.5,0,4.46,1.57,4.46,4.66v6.42h-1.76V108.22z"></path>
	<path class="st0" d="M164.21,108.12h6.86c0-2.11-1.57-3.28-3.43-3.28C165.83,104.83,164.4,106.01,164.21,108.12 M167.69,114.54   c-3.09,0-5.39-2.16-5.39-5.64c0-3.48,2.21-5.59,5.39-5.59c3.19,0,5.19,2.21,5.19,5.2c0,0.39,0,0.73-0.05,1.08h-8.68   c0.15,2.21,1.67,3.43,3.53,3.43c1.62,0,2.65-0.83,3.04-2.01h1.96C172.15,112.97,170.38,114.54,167.69,114.54"></path>
	<path class="st0" d="M179.4,103.31c2.7,0,4.46,1.37,5,3.68h-1.96c-0.39-1.32-1.47-2.16-3.09-2.16c-1.96,0-3.43,1.42-3.43,4.07   s1.47,4.12,3.43,4.12c1.62,0,2.7-0.78,3.09-2.16h1.96c-0.54,2.16-2.3,3.68-5,3.68c-3.09,0-5.29-2.16-5.29-5.64   S176.31,103.31,179.4,103.31"></path>
	<path class="st0" d="M186.7,104.98h-1.42v-1.47h1.42v-2.74h1.81v2.74h2.84v1.47h-2.84v6.42c0,1.08,0.39,1.47,1.52,1.47h1.32v1.52   h-1.62c-1.91,0-2.99-0.78-2.99-2.99v-6.42H186.7z"></path>
	<path class="st0" d="M202.68,104.88c-1.96,0-3.68,1.47-3.68,4.02c0,2.55,1.67,4.07,3.68,4.07c2.01,0,3.68-1.47,3.68-4.02   C206.36,106.4,204.64,104.88,202.68,104.88 M202.34,103.31c1.71,0,3.28,0.88,4.02,2.11v-5.73h1.81v14.65h-1.81v-2.06   c-0.64,1.23-2.06,2.21-4.07,2.21c-2.89,0-5.15-2.3-5.15-5.64C197.19,105.52,199.4,103.31,202.34,103.31"></path>
	<path class="st0" d="M215.57,104.88c-1.96,0-3.68,1.47-3.68,4.02c0,2.55,1.67,4.07,3.68,4.07s3.68-1.47,3.68-4.02   C219.3,106.4,217.58,104.88,215.57,104.88 M215.23,103.31c2.01,0,3.43,1.03,4.07,2.16v-1.96h1.81v10.83h-1.81v-2.01   c-0.64,1.18-2.06,2.21-4.07,2.21c-2.89,0-5.15-2.3-5.15-5.64S212.34,103.31,215.23,103.31"></path>
	<path class="st0" d="M224.05,104.98h-1.42v-1.47h1.42v-2.74h1.81v2.74h2.84v1.47h-2.84v6.42c0,1.08,0.39,1.47,1.52,1.47h1.32v1.52   h-1.62c-1.91,0-2.99-0.78-2.99-2.99v-6.42H224.05z"></path>
	<path class="st0" d="M235.22,104.88c-1.96,0-3.68,1.47-3.68,4.02c0,2.55,1.67,4.07,3.68,4.07c2.01,0,3.68-1.47,3.68-4.02   C238.9,106.4,237.19,104.88,235.22,104.88 M234.83,103.31c2.01,0,3.43,1.03,4.07,2.16v-1.96h1.81v10.83h-1.81v-2.01   c-0.64,1.18-2.06,2.21-4.07,2.21c-2.89,0-5.15-2.3-5.15-5.64S231.94,103.31,234.83,103.31"></path>
</g>
<g>
	<defs>
		<rect id="SVGID_3_" x="1" width="399.44" height="117.18"></rect>
	</defs>
	<clipPath id="SVGID_4_">
		<use xlink:href="#SVGID_3_" style="overflow:visible;"></use>
	</clipPath>
	<path class="st1" d="M147.94,42.44c0-8.67-4.71-13.13-11.86-13.13c-7.15,0-11.91,4.46-11.91,13.13v26.42h-9.7V42.44   c0-8.67-4.71-13.13-11.86-13.13c-7.16,0-11.91,4.46-11.91,13.13v26.42h-9.8v-47.3h9.8v5.39c3.19-3.87,8.33-6.18,13.97-6.18   c7.45,0,13.72,3.19,17.01,9.36c2.94-5.73,9.61-9.36,16.47-9.36c11.08,0,19.51,6.96,19.51,20.19v27.89h-9.7V42.44z"></path>
	<path class="st1" d="M186.9,29.31c-7.3,0-14.31,5.49-14.31,15.73s7.06,16.12,14.31,16.12c7.25,0,14.31-5.73,14.31-15.98   S194.3,29.31,186.9,29.31 M184.84,20.78c7.99,0,13.48,3.77,16.42,7.65v-6.86h9.85v47.3h-9.85V61.8c-2.99,4.02-8.67,7.79-16.57,7.79   c-12.25,0-22.15-10.05-22.15-24.65C162.54,30.34,172.39,20.78,184.84,20.78"></path>
	<path class="st1" d="M221.21,29.55h-5.59v-7.99h5.59V9.8h9.85v11.76h11.52v7.99h-11.52v26.17c0,3.53,1.37,5,5.49,5h6.03v8.14h-7.7   c-8.43,0-13.62-3.53-13.62-13.14V29.55H221.21z"></path>
	<path class="st1" d="M271.44,29.31c-7.3,0-14.31,5.73-14.31,15.88s7.06,15.98,14.31,15.98c7.25,0,14.41-5.93,14.41-16.12   C285.85,34.85,278.84,29.31,271.44,29.31 M273.6,20.78c12.45,0,22.25,9.61,22.25,24.21s-9.8,24.65-22.25,24.65   c-7.79,0-13.38-3.97-16.47-7.65v29.36h-9.8V21.56h9.8v6.96C260.12,24.55,265.86,20.78,273.6,20.78"></path>
	<path class="st1" d="M322.32,29.31c-7.3,0-14.31,5.49-14.31,15.73s7.06,16.12,14.31,16.12c7.25,0,14.31-5.73,14.31-15.98   C336.68,35.04,329.72,29.31,322.32,29.31 M320.26,20.78c7.99,0,13.48,3.77,16.42,7.65v-6.86h9.85v47.3h-9.85V61.8   c-2.99,4.02-8.67,7.79-16.57,7.79c-12.25,0-22.15-10.05-22.15-24.65C297.96,30.34,307.81,20.78,320.26,20.78"></path>
	<path class="st1" d="M376.23,29.31c-7.3,0-14.31,5.49-14.31,15.73s7.06,16.12,14.31,16.12c7.25,0,14.31-5.73,14.31-15.98   C390.59,35.04,383.63,29.31,376.23,29.31z M374.27,20.78c6.17,0,12.69,2.94,16.32,7.4V5.34h9.85v63.52h-9.85v-7.11   c-2.99,4.31-8.67,7.89-16.42,7.89c-12.45,0-22.3-10.05-22.3-24.65S361.72,20.78,374.27,20.78z"></path>
	<path class="st2" d="M20.75,10c-6.03,0-10.98,4.95-10.98,10.98v48.37c0,6.03,4.95,10.98,10.98,10.98h13.62l0.2,17.79l18.92-17.79   h5.34v-0.05h58.47c2.4,0,4.36,1.96,4.36,4.36c0,2.4-1.96,4.36-4.36,4.36h-59.7l-30.53,26.91V89l-6.37,0.05   C9.77,89.15,1,80.28,1,69.35V20.98c0-10.93,8.77-19.7,19.7-19.7h82.44c5.73,0,5.73,8.72,0,8.72H20.75z"></path>
	<path class="st1" d="M33.5,64.06c-4.41-0.29-7.5-2.79-7.55-7.3v-0.25c0-0.2,0-0.44,0.05-0.64c0.24-3.58,1.91-5.29,4.46-6.18   c0.73-0.34,1.57-0.54,2.45-0.59c0.73-0.15,1.57-0.2,2.4-0.29l0.24-0.05c1.13-0.15,2.11-0.39,3.24-0.78h0.05l0.1-0.05l0.15-0.05   l0.05-0.05c3.04-1.03,5.59-3.19,7.16-5.93c0.93-1.62,1.47-3.58,1.71-5.54c0.44-4.07-0.1-6.42,3.87-8.63   c1.18-0.69,2.55-1.03,3.97-1.03c4.41,0.05,7.94,3.63,7.89,8.04c0,2.25-0.98,4.26-2.5,5.73c-0.15,0.15-0.29,0.25-0.44,0.39   c-1.76,1.52-4.85,1.23-7.25,1.32h-0.1l-0.24,0.05h-0.1l-0.24,0.05h-0.29h-0.1h-0.78l-0.15,0.05h-0.49l-0.1,0.05l-0.15,0.05   l-0.1,0.05l-0.1,0.05l-0.1,0.05l-0.1,0.05l-0.1,0.05l-0.1,0.05l-0.1,0.05l-0.1,0.05l-0.1,0.05l-0.1,0.05l-0.15,0.05   h-0.34l-0.1,0.05h-0.1c-1.27,0.59-2.45,1.32-3.48,2.21l-0.2,0.15c-2.99,2.69-4.71,6.22-4.9,10.39v1.13   c-0.34,3.77-3.48,6.76-7.35,6.81L33.5,64.06z"></path>
	<path class="st3" d="M53.1,49.84c4.14,0,7.5,3.36,7.5,7.5c0,4.14-3.36,7.5-7.5,7.5c-4.14,0-7.5-3.36-7.5-7.5   C45.6,53.2,48.96,49.84,53.1,49.84"></path>
	<path class="st3" d="M34.23,28.18c4.14,0,7.5,3.36,7.5,7.5c0,4.14-3.36,7.5-7.5,7.5c-4.14,0-7.5-3.36-7.5-7.5   C26.73,31.54,30.09,28.18,34.23,28.18"></path>
</g>
<polygon class="st4" points="81.83,103.39 83.69,103.39 86.19,112.51 88.89,103.39 90.75,103.39 93.4,112.51 95.85,103.39   97.61,103.39 94.23,114.28 92.37,114.28 89.77,105.65 87.17,114.28 85.31,114.28 "></polygon>
</svg>
